<?xml version="1.0" standalone="no"?>
<!DOCTYPE svg PUBLIC "-//W3C//DTD SVG 20010904//EN"
 "http://www.w3.org/TR/2001/REC-SVG-20010904/DTD/svg10.dtd">
<svg version="1.0" xmlns="http://www.w3.org/2000/svg"
 width="500.000000pt" height="500.000000pt" viewBox="0 0 500.000000 500.000000"
 preserveAspectRatio="xMidYMid meet">

<g transform="translate(0.000000,500.000000) scale(0.100000,-0.100000)"
fill="#000000" stroke="none">
<path d="M2301 3712 l-200 -157 -1 -262 0 -263 95 0 95 0 0 55 0 55 -35 0 -35
0 0 183 1 182 134 105 c74 58 139 106 144 108 18 6 291 -218 291 -239 0 -16 7
-19 55 -19 l55 0 0 48 0 49 -157 124 c-87 68 -176 139 -199 156 l-42 32 -201
-157z"/>
<path d="M2790 3160 c0 -19 -7 -20 -165 -20 l-165 0 0 -55 0 -55 220 0 220 0
0 75 0 75 -55 0 c-48 0 -55 -2 -55 -20z"/>
<path d="M2100 2815 l0 -75 60 0 c53 0 60 2 60 20 0 19 7 20 160 20 l160 0 0
55 0 55 -220 0 -220 0 0 -75z"/>
<path d="M2720 2835 l0 -55 35 0 35 0 0 -178 0 -179 -137 -108 c-75 -59 -142
-108 -148 -109 -7 -1 -73 47 -148 106 -95 75 -137 114 -137 128 0 18 -7 20
-60 20 l-60 0 0 -45 0 -45 201 -160 202 -160 63 51 64 51 0 -176 0 -176 30 0
30 0 0 80 0 80 30 0 30 0 0 -80 0 -80 30 0 30 0 0 185 0 185 -30 0 -30 0 0
-75 0 -75 -30 0 -30 0 0 74 c0 60 -3 75 -16 78 -10 2 30 39 105 98 l121 95 0
262 0 263 -90 0 -90 0 0 -55z"/>
<path d="M1570 1985 l0 -185 30 0 c29 0 29 1 32 63 4 84 27 85 49 2 15 -57 17
-60 49 -63 28 -3 32 -1 26 15 -4 10 -12 39 -18 64 -9 39 -8 50 6 70 11 17 16
45 16 101 0 106 -12 118 -115 118 l-75 0 0 -185z m125 65 c0 -55 0 -55 -32
-58 l-33 -3 0 61 0 61 33 -3 c32 -3 32 -3 32 -58z"/>
<path d="M1810 1960 l0 -160 90 0 90 0 0 30 0 30 -60 0 -60 0 0 35 c0 35 0 35
45 35 43 0 45 1 45 30 0 29 -2 30 -45 30 -45 0 -45 0 -45 35 l0 34 58 3 c54 3
57 4 60 31 l3 27 -90 0 -91 0 0 -160z"/>
<path d="M2105 2108 c-6 -18 -75 -296 -75 -302 0 -4 13 -6 28 -6 23 0 30 6 37
33 9 29 14 32 52 35 40 3 43 2 51 -30 6 -26 14 -34 35 -36 15 -2 27 0 27 5 0
4 -16 77 -37 161 l-37 152 -38 0 c-22 0 -41 -5 -43 -12z m58 -130 l15 -58 -29
0 c-16 0 -29 4 -29 9 0 14 23 111 26 108 1 -1 9 -28 17 -59z"/>
<path d="M2302 1963 l3 -158 80 0 c79 0 80 0 80 25 0 23 -4 25 -47 28 l-48 3
0 130 0 129 -35 0 -36 0 3 -157z"/>
<path d="M2876 2098 c-12 -17 -16 -49 -16 -140 0 -144 8 -158 93 -158 61 0 72
6 86 43 15 40 14 216 -2 247 -11 22 -20 25 -79 28 -59 3 -68 0 -82 -20z m102
-36 c9 -6 12 -34 10 -103 l-3 -94 -30 0 -30 0 -3 94 c-3 93 3 111 33 111 6 0
16 -4 23 -8z"/>
<path d="M3092 1981 c4 -169 10 -181 95 -181 87 0 93 11 93 180 l0 140 -30 0
-29 0 -3 -127 -3 -128 -27 -3 -28 -3 0 130 0 131 -36 0 -36 0 4 -139z"/>
<path d="M3340 2101 c-5 -11 -10 -46 -10 -79 l0 -59 60 -18 c58 -17 60 -19 60
-52 0 -30 -3 -33 -30 -33 -23 0 -30 4 -30 20 0 16 -7 20 -30 20 -28 0 -30 -3
-30 -34 0 -45 29 -66 92 -66 70 0 88 22 88 105 l0 65 -60 17 c-58 17 -61 19
-58 48 2 25 8 30 28 30 18 0 26 -6 28 -22 3 -18 10 -23 33 -23 26 0 29 3 29
34 0 52 -21 66 -95 66 -53 0 -66 -3 -75 -19z"/>
<path d="M3560 1960 l0 -160 90 0 90 0 0 30 0 30 -60 0 -60 0 0 34 c0 34 1 35
48 38 43 3 47 5 50 31 3 26 2 27 -47 27 l-51 0 0 35 0 35 60 0 60 0 0 30 0 30
-90 0 -90 0 0 -160z"/>
</g>
</svg>
